# Blender v3.0.1 OBJ File: 'arbol.blend'
# www.blender.org
mtllib Arbol1.mtl
o Cylinder_Cylinder.001
v -1.179790 0.015581 -1.841220
v -1.179790 8.936077 -0.630449
v -0.329841 0.015581 -1.467972
v -1.128148 8.720507 -0.611828
v 0.022219 0.015581 -0.566872
v -1.106758 8.720507 -0.566872
v -0.329841 0.015581 0.334228
v -1.128148 8.720507 -0.521916
v -1.179790 0.015581 0.707476
v -1.179790 8.936077 -0.503294
v -2.029739 0.015581 0.334228
v -1.231431 8.936077 -0.521916
v -2.381799 0.015581 -0.566872
v -1.252822 8.936077 -0.566872
v -2.029739 0.015581 -1.467972
v -1.231431 8.936077 -0.611828
v -1.179790 7.271566 -0.868107
v -0.971452 7.011849 -0.779877
v -0.885155 7.011849 -0.566872
v -0.971452 7.011849 -0.353866
v -1.179790 7.271565 -0.265637
v -1.388128 7.271565 -0.353866
v -1.474424 7.271566 -0.566872
v -1.388128 7.271565 -0.779877
v -0.847215 5.657142 -0.913115
v -0.709458 5.657141 -0.566872
v -0.847215 5.657142 -0.220629
v -1.179790 6.140261 -0.077210
v -1.512365 6.140262 -0.220629
v -1.650122 6.140262 -0.566872
v -1.512365 6.140262 -0.913115
v -1.179790 6.140262 -1.056534
v -0.653601 3.545929 -1.120756
v -0.435646 3.545929 -0.566872
v -0.653601 3.545929 -0.012987
v -1.179790 4.167771 0.216439
v -1.705979 4.167772 -0.012987
v -1.923934 4.167772 -0.566872
v -1.705979 4.167772 -1.120756
v -1.179790 4.167772 -1.350183
v -1.179790 6.834729 -1.101462
v -0.809749 7.050301 -0.944884
v -0.656473 7.050300 -0.566872
v -0.809749 7.050301 -0.188859
v -1.179790 6.834728 -0.032282
v -1.549831 6.834728 -0.188859
v -1.703107 6.834730 -0.566872
v -1.549831 6.834728 -0.944884
v -1.179790 5.442582 -1.503326
v -0.543515 5.702299 -1.229045
v -0.279961 5.702298 -0.566872
v -0.543515 5.702299 0.095301
v -1.179790 5.442581 0.369582
v -1.816065 5.442581 0.095301
v -2.079619 5.442583 -0.566872
v -1.816065 5.442581 -1.229045
v -1.179790 3.133528 -2.220365
v -0.068795 3.616649 -1.736068
v 0.391394 3.616648 -0.566872
v -0.068795 3.616649 0.602324
v -1.179790 3.133527 1.086622
v -2.290785 3.133528 0.602324
v -2.750974 3.133528 -0.566872
v -2.290785 3.133528 -1.736068
v -0.501346 1.885711 -1.284042
v -0.220326 1.885711 -0.566872
v -0.501346 1.885711 0.150298
v -1.179790 1.885711 0.447359
v -1.858234 1.885711 0.150298
v -2.139254 1.885711 -0.566872
v -1.858234 1.885711 -1.284042
v -1.179790 1.885711 -1.581103
v -1.179790 1.327271 -2.439183
v 0.072801 1.949114 -1.890796
v 0.591642 1.949114 -0.566872
v 0.072801 1.949114 0.757052
v -1.179790 1.327271 1.305439
v -2.432381 1.327271 0.757052
v -2.951222 1.327271 -0.566872
v -2.432382 1.327271 -1.890796
v -0.721877 1.717399 -1.051079
v -0.532204 1.717399 -0.566872
v -0.721877 1.717399 -0.082665
v -1.179790 1.717399 0.117901
v -1.637703 1.717399 -0.082665
v -1.827376 1.717399 -0.566872
v -1.637703 1.717399 -1.051079
v -1.179790 1.717399 -1.251644
vt 1.000000 0.904065
vt 1.000000 1.000000
vt 0.875000 1.000000
vt 0.875000 0.904065
vt 0.750000 1.000000
vt 0.750000 0.904065
vt 0.625000 1.000000
vt 0.625000 0.904065
vt 0.500000 1.000000
vt 0.500000 0.904065
vt 0.375000 1.000000
vt 0.375000 0.904065
vt 0.250000 1.000000
vt 0.250000 0.904066
vt 0.419706 0.419706
vt 0.250000 0.490000
vt 0.080294 0.419706
vt 0.010000 0.250000
vt 0.080294 0.080294
vt 0.250000 0.010000
vt 0.419706 0.080294
vt 0.490000 0.250000
vt 0.125000 1.000000
vt 0.125000 0.904065
vt 0.000000 1.000000
vt 0.000000 0.904065
vt 0.750000 0.490000
vt 0.919706 0.419706
vt 0.990000 0.250000
vt 0.919706 0.080294
vt 0.750000 0.010000
vt 0.580294 0.080294
vt 0.510000 0.250000
vt 0.580294 0.419706
vt 0.125000 0.826638
vt 0.125000 0.901857
vt 0.000000 0.901857
vt 0.000000 0.826638
vt 0.250000 0.826638
vt 0.250000 0.901857
vt 0.375000 0.826638
vt 0.375000 0.901857
vt 0.500000 0.826638
vt 0.500000 0.901857
vt 0.625000 0.826638
vt 0.625000 0.901857
vt 0.750000 0.826638
vt 0.750000 0.901857
vt 0.875000 0.826638
vt 0.875000 0.901857
vt 1.000000 0.826638
vt 1.000000 0.901857
vt 1.000000 0.706841
vt 1.000000 0.824044
vt 0.875000 0.824044
vt 0.875000 0.706841
vt 0.750000 0.824044
vt 0.750000 0.706841
vt 0.625000 0.824044
vt 0.625000 0.706841
vt 0.500000 0.824044
vt 0.500000 0.706841
vt 0.375000 0.824044
vt 0.375000 0.706841
vt 0.250000 0.824044
vt 0.250000 0.706841
vt 0.125000 0.824044
vt 0.125000 0.706841
vt 0.000000 0.824044
vt 0.000000 0.706841
vt 0.125000 0.611060
vt 0.125000 0.702779
vt 0.000000 0.702779
vt 0.000000 0.611060
vt 0.250000 0.611060
vt 0.250000 0.702779
vt 0.375000 0.611060
vt 0.375000 0.702779
vt 0.500000 0.611060
vt 0.500000 0.702779
vt 0.625000 0.611060
vt 0.625000 0.702779
vt 0.750000 0.611060
vt 0.750000 0.702779
vt 0.875000 0.611060
vt 0.875000 0.702779
vt 1.000000 0.611060
vt 1.000000 0.702779
vt 1.000000 0.597750
vt 1.000000 0.607418
vt 0.875000 0.607418
vt 0.875000 0.597750
vt 0.750000 0.607418
vt 0.750000 0.597750
vt 0.625000 0.607418
vt 0.625000 0.597750
vt 0.500000 0.607418
vt 0.500000 0.597750
vt 0.375000 0.607418
vt 0.375000 0.597750
vt 0.250000 0.607418
vt 0.250000 0.597750
vt 0.125000 0.607418
vt 0.125000 0.597750
vt 0.000000 0.607418
vt 0.000000 0.597750
vt 0.125000 0.500000
vt 0.000000 0.500000
vt 0.250000 0.500000
vt 0.375000 0.500000
vt 0.500000 0.500000
vt 0.625000 0.500000
vt 0.750000 0.500000
vt 0.875000 0.500000
vt 1.000000 0.500000
vn 0.3740 0.2235 -0.9001
vn 0.8965 0.2432 -0.3702
vn 0.8965 0.2432 0.3702
vn 0.3740 0.2235 0.9001
vn -0.3758 0.2015 0.9045
vn -0.9065 0.1955 0.3743
vn 0.8720 0.4895 0.0000
vn -0.9065 0.1955 -0.3743
vn -0.3758 0.2015 -0.9045
vn 0.0000 -1.0000 0.0000
vn -0.3758 0.3035 -0.8756
vn -0.8875 0.2942 -0.3548
vn -0.8875 0.2942 0.3548
vn -0.3758 0.3035 0.8756
vn 0.3697 0.3481 0.8615
vn 0.8531 0.3950 0.3410
vn 0.8531 0.3950 -0.3410
vn 0.3697 0.3481 -0.8615
vn 0.3673 0.3892 -0.8448
vn 0.8312 0.4489 -0.3280
vn 0.8312 0.4489 0.3280
vn 0.3673 0.3892 0.8448
vn -0.3758 0.3342 0.8643
vn -0.8804 0.3227 0.3474
vn -0.8804 0.3227 -0.3474
vn -0.3758 0.3342 -0.8643
vn -0.3780 0.3312 -0.8645
vn -0.8822 0.3192 -0.3461
vn -0.8822 0.3192 0.3461
vn -0.3780 0.3312 0.8645
vn 0.3654 0.4099 0.8357
vn 0.7985 0.5140 0.3133
vn 0.7985 0.5140 -0.3133
vn 0.3654 0.4099 -0.8357
vn 0.3497 -0.4415 0.8263
vn 0.8338 -0.4364 0.3380
vn 0.8338 -0.4364 -0.3380
vn 0.3497 -0.4415 -0.8263
vn -0.3121 -0.7321 -0.6055
vn 0.1655 -0.9839 0.0671
vn 0.1655 -0.9839 -0.0671
vn -0.3121 -0.7321 0.6055
vn -0.3939 -0.7700 0.5019
vn 0.1045 -0.9937 -0.0416
vn 0.1045 -0.9937 0.0416
vn -0.3939 -0.7700 -0.5019
vn 0.3413 -0.5069 -0.7915
vn 0.8065 -0.4965 -0.3210
vn 0.8065 -0.4965 0.3210
vn 0.3413 -0.5069 0.7915
vn 0.3164 -0.6107 0.7259
vn 0.7465 -0.5970 0.2938
vn 0.7465 -0.5970 -0.2938
vn 0.3164 -0.6107 -0.7259
vn -0.2676 -0.8531 -0.4480
vn 0.0852 -0.9958 0.0335
vn 0.0852 -0.9958 -0.0335
vn -0.2676 -0.8531 0.4480
vn 0.1954 -0.8734 -0.4461
vn 0.4670 -0.8652 -0.1830
vn 0.4670 -0.8652 0.1830
vn 0.1954 -0.8734 0.4461
vn -0.1954 -0.8734 0.4461
vn -0.4670 -0.8652 0.1830
vn -0.4670 -0.8652 -0.1830
vn -0.1954 -0.8734 -0.4461
vn 0.1368 -0.9210 0.3649
vn 0.0778 -0.9965 -0.0305
vn 0.0778 -0.9965 0.0305
vn 0.1368 -0.9210 -0.3649
vn 0.2323 -0.8152 -0.5305
vn 0.5532 -0.8043 -0.2168
vn 0.5532 -0.8043 0.2168
vn 0.2323 -0.8152 0.5305
vn -0.3830 0.3022 -0.8729
vn -0.8912 0.2905 -0.3485
vn -0.8912 0.2905 0.3485
vn -0.3830 0.3022 0.8729
vn 0.3830 0.3022 0.8729
vn 0.8912 0.2905 0.3485
vn 0.8912 0.2905 -0.3485
vn 0.3830 0.3022 -0.8729
usemtl None
s off
f 41/1/1 2/2/1 4/3/1 42/4/1
f 42/4/2 4/3/2 6/5/2 43/6/2
f 43/6/3 6/5/3 8/7/3 44/8/3
f 44/8/4 8/7/4 10/9/4 45/10/4
f 45/10/5 10/9/5 12/11/5 46/12/5
f 46/12/6 12/11/6 14/13/6 47/14/6
f 4/15/7 2/16/7 16/17/7 14/18/7 12/19/7 10/20/7 8/21/7 6/22/7
f 47/14/8 14/13/8 16/23/8 48/24/8
f 48/24/9 16/23/9 2/25/9 41/26/9
f 1/27/10 3/28/10 5/29/10 7/30/10 9/31/10 11/32/10 13/33/10 15/34/10
f 56/35/11 24/36/11 17/37/11 49/38/11
f 55/39/12 23/40/12 24/36/12 56/35/12
f 54/41/13 22/42/13 23/40/13 55/39/13
f 53/43/14 21/44/14 22/42/14 54/41/14
f 52/45/15 20/46/15 21/44/15 53/43/15
f 51/47/16 19/48/16 20/46/16 52/45/16
f 50/49/17 18/50/17 19/48/17 51/47/17
f 49/51/18 17/52/18 18/50/18 50/49/18
f 57/53/19 32/54/19 25/55/19 58/56/19
f 58/56/20 25/55/20 26/57/20 59/58/20
f 59/58/21 26/57/21 27/59/21 60/60/21
f 60/60/22 27/59/22 28/61/22 61/62/22
f 61/62/23 28/61/23 29/63/23 62/64/23
f 62/64/24 29/63/24 30/65/24 63/66/24
f 63/66/25 30/65/25 31/67/25 64/68/25
f 64/68/26 31/67/26 32/69/26 57/70/26
f 80/71/27 39/72/27 40/73/27 73/74/27
f 79/75/28 38/76/28 39/72/28 80/71/28
f 78/77/29 37/78/29 38/76/29 79/75/29
f 77/79/30 36/80/30 37/78/30 78/77/30
f 76/81/31 35/82/31 36/80/31 77/79/31
f 75/83/32 34/84/32 35/82/32 76/81/32
f 74/85/33 33/86/33 34/84/33 75/83/33
f 73/87/34 40/88/34 33/86/34 74/85/34
f 24/36/35 48/24/35 41/26/35 17/37/35
f 23/40/36 47/14/36 48/24/36 24/36/36
f 22/42/37 46/12/37 47/14/37 23/40/37
f 21/44/38 45/10/38 46/12/38 22/42/38
f 20/46/39 44/8/39 45/10/39 21/44/39
f 19/48/40 43/6/40 44/8/40 20/46/40
f 18/50/41 42/4/41 43/6/41 19/48/41
f 17/52/42 41/1/42 42/4/42 18/50/42
f 32/54/43 49/51/43 50/49/43 25/55/43
f 25/55/44 50/49/44 51/47/44 26/57/44
f 26/57/45 51/47/45 52/45/45 27/59/45
f 27/59/46 52/45/46 53/43/46 28/61/46
f 28/61/47 53/43/47 54/41/47 29/63/47
f 29/63/48 54/41/48 55/39/48 30/65/48
f 30/65/49 55/39/49 56/35/49 31/67/49
f 31/67/50 56/35/50 49/38/50 32/69/50
f 39/72/51 64/68/51 57/70/51 40/73/51
f 38/76/52 63/66/52 64/68/52 39/72/52
f 37/78/53 62/64/53 63/66/53 38/76/53
f 36/80/54 61/62/54 62/64/54 37/78/54
f 35/82/55 60/60/55 61/62/55 36/80/55
f 34/84/56 59/58/56 60/60/56 35/82/56
f 33/86/57 58/56/57 59/58/57 34/84/57
f 40/88/58 57/53/58 58/56/58 33/86/58
f 88/89/59 72/90/59 65/91/59 81/92/59
f 81/92/60 65/91/60 66/93/60 82/94/60
f 82/94/61 66/93/61 67/95/61 83/96/61
f 83/96/62 67/95/62 68/97/62 84/98/62
f 84/98/63 68/97/63 69/99/63 85/100/63
f 85/100/64 69/99/64 70/101/64 86/102/64
f 86/102/65 70/101/65 71/103/65 87/104/65
f 87/104/66 71/103/66 72/105/66 88/106/66
f 72/90/67 73/87/67 74/85/67 65/91/67
f 65/91/68 74/85/68 75/83/68 66/93/68
f 66/93/69 75/83/69 76/81/69 67/95/69
f 67/95/70 76/81/70 77/79/70 68/97/70
f 68/97/71 77/79/71 78/77/71 69/99/71
f 69/99/72 78/77/72 79/75/72 70/101/72
f 70/101/73 79/75/73 80/71/73 71/103/73
f 71/103/74 80/71/74 73/74/74 72/105/74
f 15/107/75 87/104/75 88/106/75 1/108/75
f 13/109/76 86/102/76 87/104/76 15/107/76
f 11/110/77 85/100/77 86/102/77 13/109/77
f 9/111/78 84/98/78 85/100/78 11/110/78
f 7/112/79 83/96/79 84/98/79 9/111/79
f 5/113/80 82/94/80 83/96/80 7/112/80
f 3/114/81 81/92/81 82/94/81 5/113/81
f 1/115/82 88/89/82 81/92/82 3/114/82
