# Blender v3.0.1 OBJ File: ''
# www.blender.org
mtllib Arbol2_tocon.mtl
o Cylinder_Cylinder.001
v 1.772683 0.000000 2.959440
v 1.772683 2.160805 2.959440
v 0.782655 2.160805 2.548171
v 0.782655 0.352590 2.548171
v 0.975312 0.224125 2.628203
v 1.101821 0.110938 2.680756
v 1.146793 0.000000 2.699438
v 0.746618 0.358414 2.460918
v -1.812728 0.228149 3.428694
v -1.804112 0.226757 3.449554
v 0.372573 0.000000 1.555281
v 0.372573 2.160804 1.555281
v 0.782655 2.160804 0.562391
v 0.782655 0.000000 0.562391
v 1.772683 2.160804 0.151122
v 1.772683 0.297379 0.151122
v 1.772683 0.000000 0.151122
v 2.406543 0.194963 -1.027396
v 2.406543 0.097614 -1.027396
v 2.762711 0.000000 0.562391
v 2.762711 1.880190 0.562391
v 2.842071 1.763754 0.754538
v 2.919305 1.914343 0.941536
v 2.891974 2.160805 0.875363
v 3.172794 2.160805 1.555281
v 3.172794 0.000001 1.555281
v 2.762711 2.160805 2.548171
v 2.762711 0.000000 2.548171
v 2.832853 0.000000 2.378345
v 2.895811 0.274214 2.225911
v 2.990667 0.319960 1.996246
v 3.083255 0.225785 1.772072
v 3.134810 0.000001 1.647246
v 0.782655 0.000000 2.548171
v 0.571324 0.000000 2.036497
v 2.279881 0.000000 0.361818
v 2.762711 2.160805 0.562391
v 0.260133 0.037319 3.906709
v 0.525465 0.037319 4.016931
v -0.429798 0.094693 6.042513
v -0.543221 0.094693 5.995396
v 0.642839 0.225098 2.209650
v -0.443806 0.129248 6.036695
v -0.483211 0.164505 6.020325
v -0.543221 0.204519 5.995396
v -1.804112 0.142462 3.449554
v -1.854636 0.142462 3.327225
v -1.837539 0.196277 3.368622
v 4.122447 0.039946 2.471186
v 4.138245 0.023878 2.432936
v 4.147041 -0.014647 2.411638
v 4.106262 0.032141 2.510372
v 4.095520 -0.014647 2.536381
v 2.480056 0.190289 -0.996858
v 2.572577 0.097614 -0.958424
v 1.997250 0.283100 0.244410
v 0.492696 0.118155 4.003318
v 0.400514 0.200630 3.965025
v 0.260133 0.294236 3.906709
v 0.716299 0.213538 3.230596
v 0.547199 0.326295 3.160350
v 0.395112 0.309311 3.555768
v 0.548997 0.206699 3.619693
v 0.866813 0.016817 3.293121
v 0.827340 0.114190 3.276723
v 0.650047 0.116291 3.661670
v 0.685968 0.027679 3.676593
v 0.547199 0.016817 3.160350
v 0.395112 0.027679 3.555768
v -0.079432 0.240577 3.691066
v -0.001438 0.249287 3.488286
v -0.253500 0.211134 3.445391
v -0.295271 0.206469 3.553996
v -0.253500 0.123979 3.445391
v -0.295271 0.126962 3.553996
v -0.001438 0.086555 3.488286
v -0.079432 0.092125 3.691066
v 0.018089 0.076385 3.752997
v 0.112448 0.069646 3.507666
v 0.018089 0.255988 3.752997
v 0.112448 0.266526 3.507666
v -0.007756 0.406963 3.801108
v -0.031245 0.404340 3.862177
v -0.036105 0.402672 3.796284
v -0.055520 0.400504 3.846761
v 4.169407 2.398241 0.650889
v 4.177385 2.326302 0.670204
v 4.154841 2.282347 0.615622
v 4.131678 2.316333 0.559536
v 4.131678 2.398241 0.559536
vt 1.000000 0.500000
vt 1.000000 1.000000
vt 0.875000 1.000000
vt 0.875000 0.581588
vt 0.899325 0.551862
vt 0.915298 0.525670
vt 0.920976 0.500000
vt 0.864015 0.582935
vt 0.864015 0.582935
vt 0.875000 0.581588
vt 0.750000 0.500000
vt 0.750000 1.000000
vt 0.625000 1.000000
vt 0.625000 0.500000
vt 0.500000 1.000000
vt 0.500000 0.568812
vt 0.500000 0.500000
vt 0.500000 0.568812
vt 0.500000 0.500000
vt 0.375000 0.500000
vt 0.375000 0.935067
vt 0.350810 0.908125
vt 0.327267 0.942970
vt 0.335598 1.000000
vt 0.250000 1.000000
vt 0.250000 0.500000
vt 0.125000 1.000000
vt 0.125000 0.500000
vt 0.146380 0.500000
vt 0.165571 0.563452
vt 0.194485 0.574037
vt 0.222707 0.552245
vt 0.238422 0.500000
vt 0.000000 1.000000
vt 0.000000 0.500000
vt 0.750000 0.490000
vt 0.857287 0.445560
vt 0.919706 0.419706
vt 0.955931 0.332250
vt 0.990000 0.250000
vt 0.919706 0.080294
vt 0.750000 0.010000
vt 0.663059 0.046012
vt 0.580294 0.080294
vt 0.510000 0.250000
vt 0.516511 0.265719
vt 0.568271 0.390679
vt 0.580294 0.419706
vt 0.919706 0.419706
vt 0.857287 0.445560
vt 0.857287 0.445560
vt 0.919706 0.419706
vt 0.810583 0.500000
vt 0.832382 0.552087
vt 0.920976 0.500000
vt 0.915298 0.525670
vt 0.899325 0.551862
vt 0.875000 0.581588
vt 0.875000 0.500000
vt 0.919706 0.419706
vt 0.955931 0.332250
vt 0.832382 0.552087
vt 0.875000 0.500000
vt 0.875000 0.500000
vt 0.810583 0.500000
vt 0.194485 0.574037
vt 0.222707 0.552245
vt 0.238422 0.500000
vt 0.165571 0.563452
vt 0.146380 0.500000
vt 0.516511 0.265719
vt 0.568271 0.390679
vt 0.471646 0.565508
vt 0.435962 0.500000
vt 0.435962 0.500000
vt 0.471646 0.565508
vt 0.375000 1.000000
vt 0.750000 0.010000
vt 0.663059 0.046012
vt 0.915298 0.525670
vt 0.899325 0.551862
vt 0.875000 0.581588
vt 0.875000 0.500000
vt 0.920976 0.500000
vt 0.899325 0.551862
vt 0.875000 0.581588
vt 0.875000 0.581588
vt 0.899325 0.551862
vt 0.920976 0.500000
vt 0.915298 0.525670
vt 0.915298 0.525670
vt 0.920976 0.500000
vt 0.875000 0.500000
vt 0.875000 0.500000
vt 0.919706 0.419706
vt 0.857287 0.445560
vt 0.857287 0.445560
vt 0.919706 0.419706
vt 0.875000 0.581588
vt 0.875000 0.581588
vt 0.875000 0.581588
vt 0.875000 0.581588
vt 0.875000 0.500000
vt 0.875000 0.500000
vt 0.875000 0.500000
vt 0.875000 0.500000
vt 0.919706 0.419706
vt 0.919706 0.419706
vt 0.919706 0.419706
vt 0.919706 0.419706
vt 0.919706 0.419706
vt 0.919706 0.419706
vt 0.875000 0.581588
vt 0.875000 0.500000
vt 0.875000 0.500000
vt 0.875000 0.581588
vt 0.875000 0.581588
vt 0.875000 0.581588
vt 0.875000 0.581588
vt 0.875000 0.581588
vt 0.335598 1.000000
vt 0.327267 0.942970
vt 0.350810 0.908125
vt 0.375000 0.935067
vt 0.375000 1.000000
vn -0.3836 -0.0000 0.9235
vn -0.0221 0.9969 0.0757
vn -0.9243 -0.0000 -0.3817
vn -0.3836 -0.0000 -0.9235
vn -0.8807 0.0000 -0.4737
vn 0.9243 0.0000 -0.3817
vn 0.9243 0.0000 0.3817
vn 0.3836 0.0000 0.9235
vn 0.0000 -1.0000 -0.0000
vn -0.0092 -1.0000 -0.0039
vn -0.0092 -0.9999 -0.0039
vn -0.0098 -0.9997 0.0237
vn -0.9243 -0.0000 0.3817
vn -0.0481 -0.9986 0.0199
vn -0.1952 0.8975 -0.3955
vn 0.3291 0.0000 0.9443
vn -0.3317 0.6391 -0.6939
vn 0.3291 0.9114 -0.2470
vn -0.1017 0.5011 0.8594
vn 0.5264 0.5003 -0.6875
vn 0.1340 0.9598 0.2465
vn -0.0110 -0.9999 -0.0046
vn 0.3836 0.0000 -0.9235
vn 0.6512 0.7325 0.1985
vn 0.0280 -0.9973 -0.0675
vn 0.0811 0.9958 -0.0429
vn 0.5803 0.7707 0.2631
vn -0.9333 -0.0000 -0.3590
vn 0.8326 0.4017 0.3813
vn 0.4764 0.8513 0.2198
vn -0.1473 0.9890 -0.0142
vn 0.1678 0.0000 -0.9858
vn -0.5361 -0.0000 0.8442
vn -0.1422 -0.9895 -0.0275
vn 0.9318 0.0447 0.3603
vn -0.3440 -0.6281 0.6980
vn -0.0582 0.8910 -0.4503
vn -0.8498 0.4274 -0.3085
vn -0.1703 0.9829 0.0703
vn 0.3649 -0.7930 0.4879
vn 0.2473 -0.7800 -0.5748
vn 0.1178 0.2697 0.9557
vn -0.0021 0.0000 -1.0000
vn -0.0000 1.0000 -0.0000
usemtl None
s 1
f 1/1/1 2/2/1 3/3/1 4/4/1 5/5/1 6/6/1 7/7/1
f 4/4/2 8/8/2 9/9/2 10/10/2
f 11/11/3 12/12/3 13/13/3 14/14/3
f 14/14/4 13/13/4 15/15/4 16/16/4 17/17/4
f 17/17/5 16/16/5 18/18/5 19/19/5
f 20/20/6 21/21/6 22/22/6 23/23/6 24/24/6 25/25/6 26/26/6
f 26/26/7 25/25/7 27/27/7 28/28/7 29/29/7 30/30/7 31/31/7 32/32/7 33/33/7
f 28/28/8 27/27/8 2/34/8 1/35/8
f 1/36/9 7/37/9 34/38/9 35/39/9 11/40/9 14/41/9 17/42/9 36/43/9 20/44/9 26/45/9 33/46/10 29/47/11 28/48/9
f 38/49/12 39/50/12 40/51/12 41/52/12
f 35/53/13 42/54/13 8/8/13 4/4/13 3/3/13 12/12/13 11/11/13
f 40/55/1 43/56/1 44/57/1 45/58/1 41/59/1
f 35/39/14 34/38/14 46/60/14 47/61/14
f 8/8/15 42/54/15 48/62/15 9/9/15
f 34/63/16 4/4/16 10/10/16 46/64/16
f 42/54/17 35/53/17 47/65/17 48/62/17
f 46/64/13 10/10/13 9/9/13 48/62/13 47/65/13
f 32/32/18 31/31/18 49/66/18 50/67/18
f 51/68/7 50/67/7 49/66/7 52/69/7 53/70/7
f 30/30/19 29/29/19 53/70/19 52/69/19
f 33/33/20 32/32/20 50/67/20 51/68/20
f 31/31/21 30/30/21 52/69/21 49/66/21
f 29/47/11 33/46/10 51/71/22 53/72/22
f 19/19/23 18/18/23 54/73/23 55/74/23
f 36/75/23 56/76/23 16/16/23 15/15/23 37/77/23 21/21/23 20/20/23
f 56/76/24 36/75/24 55/74/24 54/73/24
f 36/43/25 17/42/25 19/78/25 55/79/25
f 16/16/26 56/76/26 54/73/26 18/18/26
f 57/80/27 58/81/27 44/57/27 43/56/27
f 59/82/28 38/83/28 41/59/28 45/58/28
f 39/84/29 57/80/29 43/56/29 40/55/29
f 58/81/30 59/82/30 45/58/30 44/57/30
f 60/85/30 61/86/30 62/87/30 63/88/30
f 64/89/29 65/90/29 66/91/29 67/92/29
f 61/86/28 68/93/28 69/94/28 62/87/28
f 65/90/27 60/85/27 63/88/27 66/91/27
f 68/95/12 64/96/12 67/97/12 69/98/12
f 34/38/12 7/37/12 64/96/12 68/95/12
f 6/6/27 5/5/27 60/85/27 65/90/27
f 4/4/28 34/63/28 68/93/28 61/86/28
f 7/7/29 6/6/29 65/90/29 64/89/29
f 5/5/30 4/4/30 61/86/30 60/85/30
f 63/88/30 62/87/30 59/82/30 58/81/30
f 67/92/29 66/91/29 57/80/29 39/84/29
f 70/99/31 71/100/31 72/101/31 73/102/31
f 66/91/27 63/88/27 58/81/27 57/80/27
f 69/98/12 67/97/12 39/50/12 38/49/12
f 72/101/28 74/103/28 75/104/28 73/102/28
f 71/100/32 76/105/32 74/103/32 72/101/32
f 77/106/33 70/99/33 73/102/33 75/104/33
f 76/107/34 77/108/34 75/109/34 74/110/34
f 69/98/34 38/49/34 78/111/34 79/112/34
f 38/83/33 59/82/33 80/113/33 78/114/33
f 62/87/32 69/94/32 79/115/32 81/116/32
f 59/82/31 62/87/31 81/116/31 80/113/31
f 79/112/34 78/111/34 77/108/34 76/107/34
f 78/114/33 80/113/33 70/99/33 77/106/33
f 81/116/32 79/115/32 76/105/32 71/100/32
f 80/113/35 81/116/35 82/117/35 83/118/35
f 83/118/31 82/117/31 84/119/31 85/120/31
f 70/99/36 80/113/36 83/118/36 85/120/36
f 81/116/37 71/100/37 84/119/37 82/117/37
f 71/100/38 70/99/38 85/120/38 84/119/38
f 86/121/6 87/122/6 88/123/6 89/124/6 90/125/6
f 37/77/39 24/24/39 86/121/39 90/125/39
f 23/23/40 22/22/40 88/123/40 87/122/40
f 22/22/41 21/21/41 89/124/41 88/123/41
f 24/24/42 23/23/42 87/122/42 86/121/42
f 21/21/43 37/77/43 90/125/43 89/124/43
f 13/13/44 12/12/44 3/3/44 2/2/44 27/27/44 25/25/44 24/24/44 37/77/44 15/15/44
