# Blender v3.0.1 OBJ File: ''
# www.blender.org
mtllib ARBOL_FRUTAL_SECO.mtl
o Cylinder_Cylinder.001
v -1.772683 0.000000 -2.959440
v -1.772683 2.160804 -2.959440
v -0.782655 0.000000 -2.548171
v -0.782655 2.160804 -2.548171
v -0.372573 0.000000 -1.555281
v -0.372573 2.160804 -1.555281
v -0.782655 0.000000 -0.562391
v -0.782655 2.160804 -0.562391
v -1.772683 0.000000 -0.151122
v -1.772683 2.160804 -0.151122
v -2.762711 0.000000 -0.562391
v -2.762711 2.160804 -0.562391
v -3.172794 0.000000 -1.555281
v -3.172794 2.160804 -1.555281
v -2.762711 0.000000 -2.548171
v -2.762711 2.160804 -2.548171
v -2.282344 5.423998 -2.273392
v -2.958274 5.222690 -2.544659
v -1.987739 5.512172 -1.581466
v -2.247036 5.435560 -0.874201
v -2.908342 5.239041 -0.565904
v -3.584272 5.037732 -0.837170
v -3.878876 4.949559 -1.529096
v -3.619580 5.026171 -2.236361
v -5.656876 7.793275 -2.067253
v -5.728919 7.413853 -2.259833
v -5.625797 7.958526 -1.576035
v -5.653889 7.812804 -1.073928
v -5.724695 7.441470 -0.855058
v -5.796738 7.062047 -1.047638
v -5.827817 6.896797 -1.538856
v -5.799726 7.042520 -2.040963
v -8.408030 8.069740 -1.762303
v -8.505948 7.951338 -1.838919
v -8.365486 8.121367 -1.566876
v -8.403240 8.075974 -1.367117
v -8.499176 7.960152 -1.280041
v -8.597095 7.841748 -1.356657
v -8.639639 7.790123 -1.552084
v -8.601884 7.835516 -1.751844
v -4.747642 7.368024 -1.577346
v -4.909011 7.268195 -2.112938
v -4.872864 7.267817 -1.028140
v -3.310627 10.723402 -2.606628
v -3.319731 10.674997 -2.750517
v -3.100665 10.521191 -2.763899
v -3.053396 10.550432 -2.607013
v -5.166671 8.506834 -2.435991
v -5.193392 8.364756 -2.712702
v -4.411653 7.999134 -2.437118
v -4.550394 7.913303 -2.751981
v -4.415560 9.403845 -2.278520
v -3.861988 9.031603 -2.279347
v -4.437719 9.352015 -2.475834
v -3.966280 9.021015 -2.504633
v -3.863094 10.063623 -1.976543
v -3.457692 9.791018 -1.977148
v -3.877441 9.987335 -2.203314
v -3.532188 9.744932 -2.224404
v -4.265627 9.547157 -2.392128
v -3.832947 9.243370 -2.418560
v -4.245867 9.606499 -2.185766
v -3.737807 9.264860 -2.186525
v -4.059105 9.829536 -2.083683
v -3.601134 9.521582 -2.084366
v -4.076224 9.761927 -2.300003
v -3.686202 9.488091 -2.323828
v -2.647993 8.967613 -2.633194
v -2.711253 8.862116 -2.674031
v -2.670239 8.871380 -2.574004
v -2.611322 8.982050 -2.529965
v -3.332263 9.375023 -1.992599
v -3.404185 9.346708 -2.195055
v -3.447815 9.157976 -2.078970
v -3.528252 9.139807 -2.275147
v -2.954484 9.169102 -2.375478
v -3.040359 9.007797 -2.439667
v -3.100138 8.994295 -2.585461
v -3.007934 9.148060 -2.525938
v -2.089369 3.019189 -0.266787
v -2.991808 2.963053 -0.639015
v -3.001654 2.959829 -2.461221
v -2.103292 3.014630 -2.843776
v -1.200853 3.070765 -2.471548
v -0.822972 3.095354 -1.562583
v -1.191007 3.073990 -0.649341
v -3.369689 2.938465 -1.547979
v -2.508533 4.155346 -0.419880
v -3.317919 4.017416 -2.346134
v -1.419119 4.332321 -1.572248
v -3.295041 4.024908 -0.740434
v -2.540886 4.144751 -2.690683
v -1.754377 4.275188 -2.370129
v -1.731500 4.282680 -0.764428
v -3.630300 3.967776 -1.538314
v -0.633502 4.682796 2.356385
v -0.449151 4.270535 2.395639
v -0.755564 4.251844 2.526121
v -0.898533 4.639365 2.473904
v -1.349905 3.463562 0.342048
v -1.655107 3.420519 0.642532
v -1.598005 4.601698 0.290982
v -2.208340 4.501680 0.561614
v -0.247515 3.867049 1.032215
v -0.551961 4.547873 0.967390
v -0.989643 4.476149 1.161465
v -0.753539 3.836181 1.247699
v -1.541500 4.334011 -3.032818
v -2.194503 4.225715 -3.298960
v -1.831188 3.287425 -3.426066
v -1.081933 3.334033 -3.117022
v -6.988996 7.927141 -1.919595
v -7.040041 7.667616 -2.061106
v -7.366547 7.965082 -1.877745
v -7.390500 7.735446 -2.007987
v -7.320720 8.605911 -3.233844
v -7.185277 8.592300 -3.248857
v -7.203589 8.499198 -3.299622
v -7.329312 8.523531 -3.280566
v -7.378885 7.885052 -2.249567
v -7.071088 7.825480 -2.296220
v -7.026257 8.053411 -2.171935
v -7.357848 8.086733 -2.135180
v -6.940817 8.204292 -2.765067
v -6.724057 8.162338 -2.797921
v -6.692485 8.322855 -2.710396
v -6.926002 8.346322 -2.684512
v -0.782655 0.352590 -2.548171
v -0.571324 0.000000 -2.036497
v -1.146793 0.000000 -2.699438
v -0.975312 0.224125 -2.628203
v -1.101821 0.110938 -2.680756
v -0.642839 0.225098 -2.209650
v -0.746618 0.358414 -2.460918
v 0.543221 0.094692 -5.995396
v 0.429798 0.094692 -6.042513
v 1.812728 0.228148 -3.428694
v 1.837539 0.196276 -3.368622
v 1.854636 0.142461 -3.327225
v 1.804112 0.142461 -3.449554
v 1.804112 0.226756 -3.449554
v -3.134810 0.000000 -1.647246
v -2.832853 0.000000 -2.378345
v -2.895811 0.274214 -2.225911
v -2.990667 0.319960 -1.996246
v -3.083255 0.225784 -1.772072
v -4.147041 -0.014648 -2.411638
v -4.095520 -0.014648 -2.536381
v -4.106262 0.032140 -2.510372
v -4.122447 0.039945 -2.471186
v -4.138245 0.023877 -2.432936
v -2.279881 0.000000 -0.361818
v -1.772683 0.297379 -0.151122
v -1.997250 0.283100 -0.244410
v -2.406543 0.194963 1.027396
v -2.406543 0.097614 1.027396
v -2.572577 0.097614 0.958424
v -2.480056 0.190289 0.996858
v 0.543221 0.204518 -5.995396
v 0.483211 0.164504 -6.020325
v 0.443806 0.129247 -6.036695
v -0.685968 0.027678 -3.676593
v -0.395112 0.027678 -3.555768
v -0.548997 0.206698 -3.619693
v -0.650047 0.116290 -3.661670
v -0.395112 0.309310 -3.555768
v -0.547199 0.016816 -3.160350
v -0.827340 0.114189 -3.276723
v -0.547199 0.326294 -3.160350
v -0.866813 0.016816 -3.293121
v -0.716299 0.213537 -3.230596
v -0.525465 0.037318 -4.016931
v -0.400514 0.200629 -3.965025
v -0.260133 0.037318 -3.906709
v -0.492696 0.118154 -4.003318
v -0.260133 0.294235 -3.906709
v 0.295271 0.126961 -3.553996
v 0.253500 0.123978 -3.445391
v 0.295271 0.206468 -3.553996
v 0.253500 0.211133 -3.445391
v -0.112448 0.266525 -3.507666
v -0.018089 0.255987 -3.752997
v -0.112448 0.069645 -3.507666
v -0.018089 0.076384 -3.752997
v 0.001438 0.249286 -3.488286
v 0.001438 0.086554 -3.488286
v 0.079432 0.240576 -3.691066
v 0.079432 0.092124 -3.691066
v 0.055520 0.400503 -3.846761
v 0.031245 0.404339 -3.862177
v 0.007756 0.406962 -3.801108
v 0.036105 0.402671 -3.796284
v -2.762711 1.880190 -0.562391
v -2.891974 2.160804 -0.875363
v -2.919305 1.914343 -0.941536
v -2.842071 1.763754 -0.754538
v -4.169408 2.398240 -0.650889
v -4.131678 2.398240 -0.559536
v -4.131678 2.316332 -0.559536
v -4.177386 2.326301 -0.670204
v -4.154842 2.282346 -0.615622
vt 1.000000 0.500000
vt 1.000000 1.000000
vt 0.875000 1.000000
vt 0.875000 0.581588
vt 0.899325 0.551862
vt 0.915298 0.525670
vt 0.920976 0.500000
vt 0.864015 0.582935
vt 0.864015 0.582935
vt 0.875000 0.581588
vt 0.750000 0.500000
vt 0.750000 1.000000
vt 0.625000 1.000000
vt 0.625000 0.500000
vt 0.500000 1.000000
vt 0.500000 0.568812
vt 0.500000 0.500000
vt 0.500000 0.568812
vt 0.500000 0.500000
vt 0.375000 0.500000
vt 0.375000 0.935067
vt 0.350810 0.908125
vt 0.327267 0.942970
vt 0.335598 1.000000
vt 0.250000 1.000000
vt 0.250000 0.500000
vt 0.375000 1.000000
vt 0.500000 1.000000
vt 0.500000 1.000000
vt 0.375000 1.000000
vt 0.125000 1.000000
vt 0.125000 0.500000
vt 0.146380 0.500000
vt 0.165571 0.563452
vt 0.194485 0.574037
vt 0.222707 0.552245
vt 0.238422 0.500000
vt 0.000000 1.000000
vt 0.000000 0.500000
vt 0.750000 0.490000
vt 0.857287 0.445560
vt 0.919706 0.419706
vt 0.955931 0.332250
vt 0.990000 0.250000
vt 0.919706 0.080294
vt 0.750000 0.010000
vt 0.663059 0.046012
vt 0.580294 0.080294
vt 0.510000 0.250000
vt 0.516511 0.265719
vt 0.568271 0.390679
vt 0.580294 0.419706
vt 0.750000 1.000000
vt 0.875000 1.000000
vt 0.875000 1.000000
vt 0.750000 1.000000
vt 0.000000 1.000000
vt 0.125000 1.000000
vt 0.125000 1.000000
vt 0.000000 1.000000
vt 0.875000 1.000000
vt 1.000000 1.000000
vt 1.000000 1.000000
vt 0.625000 1.000000
vt 0.750000 1.000000
vt 0.625000 1.000000
vt 0.250000 1.000000
vt 0.250000 1.000000
vt 0.125000 1.000000
vt 0.250000 1.000000
vt 0.250000 1.000000
vt 0.125000 1.000000
vt 0.500000 1.000000
vt 0.375000 1.000000
vt 0.625000 1.000000
vt 1.000000 1.000000
vt 0.875000 1.000000
vt 0.000000 1.000000
vt 0.625000 1.000000
vt 0.419706 0.419706
vt 0.250000 0.490000
vt 0.080294 0.419706
vt 0.010000 0.250000
vt 0.080294 0.080294
vt 0.250000 0.010000
vt 0.419706 0.080294
vt 0.490000 0.250000
vt 0.500000 1.000000
vt 0.375000 1.000000
vt 0.750000 1.000000
vt 0.750000 1.000000
vt 0.625000 1.000000
vt 1.000000 1.000000
vt 0.875000 1.000000
vt 0.000000 1.000000
vt 0.000000 1.000000
vt 0.000000 1.000000
vt 0.875000 1.000000
vt 0.875000 1.000000
vt 0.875000 1.000000
vt 0.750000 1.000000
vt 0.750000 1.000000
vt 0.875000 1.000000
vt 0.750000 1.000000
vt 0.875000 1.000000
vt 0.750000 1.000000
vt 0.875000 1.000000
vt 0.875000 1.000000
vt 0.750000 1.000000
vt 0.875000 1.000000
vt 0.750000 1.000000
vt 0.875000 1.000000
vt 0.750000 1.000000
vt 0.875000 1.000000
vt 0.750000 1.000000
vt 0.750000 1.000000
vt 0.875000 1.000000
vt 0.875000 1.000000
vt 0.750000 1.000000
vt 0.750000 1.000000
vt 0.875000 1.000000
vt 0.750000 1.000000
vt 0.875000 1.000000
vt 0.875000 1.000000
vt 0.750000 1.000000
vt 0.750000 1.000000
vt 0.875000 1.000000
vt 0.750000 1.000000
vt 0.875000 1.000000
vt 0.750000 1.000000
vt 0.875000 1.000000
vt 0.875000 1.000000
vt 0.875000 1.000000
vt 0.750000 1.000000
vt 0.750000 1.000000
vt 0.875000 1.000000
vt 0.750000 1.000000
vt 0.250000 1.000000
vt 0.125000 1.000000
vt 0.625000 1.000000
vt 0.500000 1.000000
vt 0.375000 1.000000
vt 0.375000 1.000000
vt 1.000000 1.000000
vt 0.000000 1.000000
vt 0.500000 1.000000
vt 0.625000 1.000000
vt 0.625000 1.000000
vt 0.500000 1.000000
vt 0.625000 1.000000
vt 0.500000 1.000000
vt 0.625000 1.000000
vt 0.500000 1.000000
vt 0.500000 1.000000
vt 0.500000 1.000000
vt 0.625000 1.000000
vt 0.625000 1.000000
vt 1.000000 1.000000
vt 0.875000 1.000000
vt 0.875000 1.000000
vt 0.000000 1.000000
vt 0.000000 1.000000
vt 1.000000 1.000000
vt 0.875000 1.000000
vt 1.000000 1.000000
vt 1.000000 1.000000
vt 0.875000 1.000000
vt 0.000000 1.000000
vt 0.000000 1.000000
vt 0.000000 1.000000
vt 0.000000 1.000000
vt 1.000000 1.000000
vt 1.000000 1.000000
vt 0.875000 1.000000
vt 1.000000 1.000000
vt 0.875000 1.000000
vt 1.000000 1.000000
vt 0.875000 1.000000
vt 1.000000 1.000000
vt 0.875000 1.000000
vt 1.000000 1.000000
vt 0.000000 1.000000
vt 0.000000 1.000000
vt 0.919706 0.419706
vt 0.857287 0.445560
vt 0.857287 0.445560
vt 0.919706 0.419706
vt 0.810583 0.500000
vt 0.832382 0.552087
vt 0.920976 0.500000
vt 0.915298 0.525670
vt 0.899325 0.551862
vt 0.875000 0.581588
vt 0.875000 0.500000
vt 0.919706 0.419706
vt 0.955931 0.332250
vt 0.832382 0.552087
vt 0.875000 0.500000
vt 0.875000 0.500000
vt 0.810583 0.500000
vt 0.194485 0.574037
vt 0.222707 0.552245
vt 0.238422 0.500000
vt 0.165571 0.563452
vt 0.146380 0.500000
vt 0.516511 0.265719
vt 0.568271 0.390679
vt 0.471646 0.565508
vt 0.435962 0.500000
vt 0.435962 0.500000
vt 0.471646 0.565508
vt 0.750000 0.010000
vt 0.663059 0.046012
vt 0.915298 0.525670
vt 0.899325 0.551862
vt 0.875000 0.581588
vt 0.875000 0.500000
vt 0.920976 0.500000
vt 0.899325 0.551862
vt 0.875000 0.581588
vt 0.875000 0.581588
vt 0.899325 0.551862
vt 0.920976 0.500000
vt 0.915298 0.525670
vt 0.915298 0.525670
vt 0.920976 0.500000
vt 0.875000 0.500000
vt 0.875000 0.500000
vt 0.919706 0.419706
vt 0.857287 0.445560
vt 0.857287 0.445560
vt 0.919706 0.419706
vt 0.875000 0.581588
vt 0.875000 0.581588
vt 0.875000 0.581588
vt 0.875000 0.581588
vt 0.875000 0.500000
vt 0.875000 0.500000
vt 0.875000 0.500000
vt 0.875000 0.500000
vt 0.919706 0.419706
vt 0.919706 0.419706
vt 0.919706 0.419706
vt 0.919706 0.419706
vt 0.919706 0.419706
vt 0.919706 0.419706
vt 0.875000 0.581588
vt 0.875000 0.500000
vt 0.875000 0.500000
vt 0.875000 0.581588
vt 0.875000 0.581588
vt 0.875000 0.581588
vt 0.875000 0.581588
vt 0.875000 0.581588
vt 0.335598 1.000000
vt 0.327267 0.942970
vt 0.350810 0.908125
vt 0.375000 0.935067
vt 0.375000 1.000000
vn 0.3836 -0.0000 -0.9235
vn 0.0221 0.9969 -0.0757
vn 0.9243 0.0000 0.3817
vn 0.3836 0.0000 0.9235
vn 0.8807 0.0000 0.4737
vn -0.9243 0.0000 0.3817
vn -0.3722 -0.0149 0.9280
vn -0.9243 -0.0000 -0.3817
vn -0.3836 0.0000 -0.9235
vn 0.0000 -1.0000 0.0000
vn 0.5303 0.7861 -0.3174
vn -0.4078 -0.0286 -0.9126
vn 0.3183 0.2352 -0.9183
vn 0.8419 0.4092 0.3518
vn -0.8900 -0.2225 0.3980
vn 0.3536 0.2479 0.9020
vn -0.9044 -0.2285 -0.3603
vn 0.8276 0.4044 -0.3893
vn -0.2889 -0.9165 -0.2767
vn -0.6704 -0.6850 -0.2852
vn -0.3322 -0.2892 0.8978
vn 0.5377 0.7965 0.2766
vn 0.2317 0.4073 -0.8834
vn -0.3672 -0.3329 -0.8685
vn -0.6615 -0.6750 0.3267
vn 0.2645 0.4505 0.8527
vn -0.7704 0.6376 -0.0007
vn -0.2119 -0.4079 0.8881
vn 0.0608 0.9616 0.2676
vn -0.0466 0.4699 -0.8815
vn -0.2198 -0.4638 -0.8583
vn -0.2876 -0.9040 0.3164
vn -0.0330 0.5396 0.8413
vn 0.0585 0.9501 -0.3064
vn -0.8195 0.5568 -0.1355
vn 0.5396 0.7989 0.2656
vn 0.5330 0.7897 -0.3038
vn 0.3316 0.4914 0.8053
vn -0.3359 -0.4044 -0.8506
vn 0.8193 -0.5551 -0.1434
vn 0.7864 -0.6001 -0.1465
vn -0.4091 -0.5173 -0.7517
vn 0.4306 0.6390 0.6373
vn -0.8484 0.5103 -0.1404
vn 0.8616 -0.3965 -0.3169
vn 0.0685 0.1829 -0.9807
vn -0.0739 -0.1121 0.9909
vn -0.7487 0.6371 -0.1834
vn 0.8836 -0.4121 -0.2223
vn 0.1407 0.2829 -0.9488
vn -0.1848 -0.2769 0.9430
vn -0.7081 0.6848 -0.1721
vn -0.7292 0.6754 -0.1103
vn 0.8670 -0.3513 -0.3534
vn -0.7189 0.6805 -0.1417
vn 0.3710 0.8925 -0.2566
vn 0.8773 -0.3817 -0.2908
vn 0.1600 -0.4373 0.8849
vn -0.2743 -0.9407 0.1996
vn -0.0731 0.3978 -0.9145
vn 0.4461 0.0777 -0.8916
vn -0.4154 -0.8742 0.2513
vn -0.3925 -0.1520 0.9071
vn 0.5335 0.7908 -0.3001
vn -0.3770 0.5222 -0.7650
vn -0.2027 -0.9640 0.1724
vn 0.4468 -0.5259 0.7237
vn 0.2768 0.9333 -0.2288
vn 0.8410 0.4093 -0.3537
vn -0.9008 -0.2269 -0.3703
vn 0.3686 0.2532 0.8944
vn -0.8989 -0.2259 0.3754
vn 0.8430 0.4096 0.3487
vn 0.3638 0.2522 -0.8967
vn -0.3869 -0.0203 -0.9219
vn -0.3820 -0.0186 0.9240
vn 0.8356 0.4073 -0.3686
vn -0.9023 -0.2275 -0.3661
vn 0.1865 -0.9342 0.3040
vn -0.8953 -0.2245 0.3848
vn 0.8425 0.4094 0.3500
vn -0.3958 -0.0239 -0.9180
vn -0.3778 -0.0170 0.9257
vn 0.3623 0.2509 0.8977
vn 0.9123 0.4093 0.0138
vn -0.2067 0.9726 -0.1066
vn -0.9374 -0.3315 0.1063
vn -0.8343 -0.3184 0.4500
vn -0.2630 0.9322 -0.2485
vn 0.9456 0.3109 -0.0959
vn 0.2650 -0.9033 0.3375
vn -0.4714 -0.1315 0.8720
vn -0.0746 0.9783 0.1933
vn 0.5216 0.1045 -0.8468
vn 0.2346 -0.9436 0.2337
vn 0.1970 -0.9200 -0.3389
vn 0.8726 0.3746 0.3135
vn -0.8262 -0.2517 -0.5040
vn -0.1758 0.9839 0.0309
vn 0.3446 0.2451 -0.9062
vn -0.0424 0.4902 -0.8706
vn -0.2310 -0.8955 -0.3805
vn -0.0354 0.5197 -0.8536
vn 0.7691 0.1827 -0.6125
vn 0.1316 0.9295 0.3447
vn -0.8380 -0.2004 0.5075
vn -0.9952 0.0969 0.0122
vn 0.1371 0.8938 0.4270
vn 0.9779 -0.0893 -0.1891
vn -0.2376 -0.8207 -0.5197
vn -0.8095 0.3512 -0.4704
vn 0.1419 0.8472 0.5119
vn 0.8625 -0.3623 0.3533
vn -0.2382 -0.7220 -0.6496
vn 0.0098 -0.9997 -0.0237
vn 0.9243 0.0000 -0.3817
vn 0.0481 -0.9986 -0.0199
vn 0.1952 0.8975 0.3955
vn -0.3291 0.0000 -0.9443
vn 0.3317 0.6391 0.6939
vn -0.3291 0.9114 0.2470
vn 0.1017 0.5011 -0.8594
vn -0.5264 0.5003 0.6875
vn -0.1340 0.9598 -0.2465
vn 0.0110 -0.9999 0.0046
vn -0.3836 0.0000 0.9235
vn -0.6512 0.7325 -0.1985
vn -0.0280 -0.9973 0.0675
vn -0.0811 0.9958 0.0429
vn -0.5803 0.7707 -0.2631
vn 0.9333 0.0000 0.3590
vn -0.8326 0.4017 -0.3813
vn -0.4764 0.8513 -0.2198
vn 0.1473 0.9890 0.0142
vn -0.1678 0.0000 0.9858
vn 0.5361 0.0000 -0.8442
vn 0.1422 -0.9895 0.0275
vn -0.9318 0.0447 -0.3603
vn 0.3440 -0.6281 -0.6980
vn 0.0582 0.8910 0.4503
vn 0.8498 0.4274 0.3085
vn 0.1703 0.9829 -0.0703
vn -0.3649 -0.7930 -0.4879
vn -0.2473 -0.7800 0.5748
vn -0.1178 0.2697 -0.9557
vn 0.0021 0.0000 1.0000
usemtl None
s off
f 1/1/1 2/2/1 4/3/1 128/4/1 131/5/1 132/6/1 130/7/1
f 128/4/2 134/8/2 137/9/2 141/10/2
f 5/11/3 6/12/3 8/13/3 7/14/3
f 7/14/4 8/13/4 10/15/4 153/16/4 9/17/4
f 9/17/5 153/16/5 155/18/5 156/19/5
f 11/20/6 193/21/6 196/22/6 195/23/6 194/24/6 14/25/6 13/26/6
f 91/27/7 88/28/7 21/29/7 22/30/7
f 13/26/8 14/25/8 16/31/8 15/32/8 143/33/8 144/34/8 145/35/8 146/36/8 142/37/8
f 15/32/9 16/31/9 2/38/9 1/39/9
f 1/40/10 130/41/10 3/42/10 129/43/10 5/44/10 7/45/10 9/46/10 152/47/10 11/48/10 13/49/10 142/50/10 143/51/10 15/52/10
f 19/53/11 17/54/11 42/55/11 41/56/11
f 92/57/12 89/58/12 24/59/12 18/60/12
f 93/61/13 92/62/13 18/63/13 17/54/13
f 94/64/14 90/65/14 19/53/14 20/66/14
f 95/67/15 91/27/15 22/30/15 23/68/15
f 88/28/16 94/64/16 20/66/16 21/29/16
f 89/58/17 95/67/17 23/68/17 24/59/17
f 90/65/18 93/61/18 17/54/18 19/53/18
f 32/69/19 31/70/19 39/71/19 40/72/19
f 24/59/20 23/68/20 31/70/20 32/69/20
f 22/30/21 21/29/21 29/73/21 30/74/21
f 20/66/22 19/53/22 41/56/22 43/75/22
f 17/54/23 18/63/23 26/76/23 25/77/23 42/55/23
f 18/60/24 24/59/24 32/69/24 26/78/24
f 23/68/25 22/30/25 30/74/25 31/70/25
f 21/29/26 20/66/26 43/75/26 28/79/26 29/73/26
f 33/80/27 34/81/27 40/82/27 39/83/27 38/84/27 37/85/27 36/86/27 35/87/27
f 30/74/28 29/73/28 37/88/28 38/89/28
f 28/79/29 27/90/29 35/91/29 36/92/29
f 25/77/30 26/76/30 113/93/30 112/94/30
f 26/78/31 32/69/31 40/72/31 34/95/31 115/96/31 113/97/31
f 31/70/32 30/74/32 38/89/32 39/71/32
f 29/73/33 28/79/33 36/92/33 37/88/33
f 27/90/34 25/77/34 112/94/34 114/98/34 33/99/34 35/91/34
f 58/100/35 56/101/35 44/102/35 45/103/35
f 43/75/36 41/56/36 27/90/36 28/79/36
f 47/104/37 46/105/37 45/103/37 44/102/37
f 56/101/38 57/106/38 47/104/38 44/102/38
f 59/107/39 58/100/39 45/103/39 46/105/39
f 57/106/40 59/107/40 46/105/40 47/104/40
f 41/56/41 42/55/41 51/108/41 50/109/41
f 42/55/42 25/77/42 49/110/42 51/108/42
f 27/90/43 41/56/43 50/109/43 48/111/43
f 25/77/44 27/90/44 48/111/44 49/110/44
f 50/109/45 51/108/45 55/112/45 53/113/45
f 51/108/46 49/110/46 54/114/46 55/112/46
f 48/111/47 50/109/47 53/113/47 52/115/47
f 49/110/48 48/111/48 52/115/48 54/114/48
f 65/116/49 67/117/49 59/107/49 57/106/49
f 67/117/50 66/118/50 58/100/50 59/107/50
f 64/119/51 65/116/51 57/106/51 56/101/51
f 66/118/52 64/119/52 56/101/52 58/100/52
f 54/114/53 52/115/53 62/120/53 60/121/53
f 52/115/51 53/113/51 63/122/51 62/120/51
f 55/112/50 54/114/50 60/121/50 61/123/50
f 53/113/54 55/112/54 61/123/54 63/122/54
f 60/121/55 62/120/55 64/119/55 66/118/55
f 62/120/51 63/122/51 65/116/51 64/119/51
f 61/123/50 60/121/50 66/118/50 67/117/50
f 79/124/56 76/125/56 71/126/56 68/127/56
f 70/128/57 69/129/57 68/127/57 71/126/57
f 76/125/58 77/130/58 70/128/58 71/126/58
f 77/130/59 78/131/59 69/129/59 70/128/59
f 78/131/60 79/124/60 68/127/60 69/129/60
f 61/123/61 67/117/61 73/132/61 75/133/61
f 63/122/62 61/123/62 75/133/62 74/134/62
f 65/116/63 63/122/63 74/134/63 72/135/63
f 67/117/64 65/116/64 72/135/64 73/132/64
f 75/133/65 73/132/65 79/124/65 78/131/65
f 74/134/66 75/133/66 78/131/66 77/130/66
f 72/135/67 74/134/67 77/130/67 76/125/67
f 73/132/68 72/135/68 76/125/68 79/124/68
f 6/12/69 4/3/69 84/136/69 85/137/69
f 16/31/70 14/25/70 87/138/70 82/139/70
f 10/15/71 8/13/71 86/140/71 80/141/71
f 14/25/72 194/24/72 12/142/72 81/143/72 87/138/72
f 8/13/73 6/12/73 85/137/73 86/140/73
f 4/3/74 2/2/74 83/144/74 84/136/74
f 2/38/75 16/31/75 82/139/75 83/145/75
f 12/142/76 10/15/76 80/141/76 81/143/76
f 85/137/77 84/136/77 93/61/77 90/65/77
f 82/139/78 87/138/78 95/67/78 89/58/78
f 107/146/79 104/147/79 97/148/79 98/149/79
f 87/138/80 81/143/80 91/27/80 95/67/80
f 86/140/81 85/137/81 90/65/81 94/64/81
f 83/145/82 82/139/82 89/58/82 92/57/82
f 81/143/83 80/141/83 88/28/83 91/27/83
f 98/149/84 97/148/84 96/150/84 99/151/84
f 104/147/85 105/152/85 96/150/85 97/148/85
f 105/152/86 106/153/86 99/151/86 96/150/86
f 106/153/87 107/146/87 98/149/87 99/151/87
f 88/28/88 80/141/88 101/154/88 103/155/88
f 94/64/89 88/28/89 103/155/89 102/156/89
f 86/140/90 94/64/90 102/156/90 100/157/90
f 80/141/91 86/140/91 100/157/91 101/154/91
f 103/155/92 101/154/92 107/146/92 106/153/92
f 102/156/93 103/155/93 106/153/93 105/152/93
f 100/157/94 102/156/94 105/152/94 104/147/94
f 101/154/95 100/157/95 104/147/95 107/146/95
f 84/136/96 83/144/96 110/158/96 111/159/96
f 93/61/97 84/136/97 111/159/97 108/160/97
f 83/145/98 92/57/98 109/161/98 110/162/98
f 92/62/99 93/61/99 108/160/99 109/163/99
f 110/162/100 109/161/100 108/160/100 111/159/100
f 117/164/101 118/165/101 119/166/101 116/167/101
f 125/168/102 124/169/102 119/170/102 118/171/102
f 114/98/103 115/172/103 34/173/103 33/99/103
f 126/174/104 125/175/104 118/165/104 117/164/104
f 127/176/105 126/174/105 117/164/105 116/167/105
f 124/177/106 127/176/106 116/167/106 119/166/106
f 115/172/107 114/98/107 123/178/107 120/179/107
f 114/98/108 112/94/108 122/180/108 123/178/108
f 112/94/109 113/93/109 121/181/109 122/180/109
f 113/97/110 115/96/110 120/182/110 121/183/110
f 120/179/111 123/178/111 127/176/111 124/177/111
f 123/178/112 122/180/112 126/174/112 127/176/112
f 122/180/113 121/181/113 125/175/113 126/174/113
f 121/183/114 120/182/114 124/169/114 125/168/114
f 174/184/115 172/185/115 136/186/115 135/187/115
f 129/188/116 133/189/116 134/8/116 128/4/116 4/3/116 6/12/116 5/11/116
f 136/190/1 161/191/1 160/192/1 159/193/1 135/194/1
f 129/43/117 3/42/117 140/195/117 139/196/117
f 134/8/118 133/189/118 138/197/118 137/9/118
f 3/198/119 128/4/119 141/10/119 140/199/119
f 133/189/120 129/188/120 139/200/120 138/197/120
f 140/199/116 141/10/116 137/9/116 138/197/116 139/200/116
f 146/36/121 145/35/121 150/201/121 151/202/121
f 147/203/8 151/202/8 150/201/8 149/204/8 148/205/8
f 144/34/122 143/33/122 148/205/122 149/204/122
f 142/37/123 146/36/123 151/202/123 147/203/123
f 145/35/124 144/34/124 149/204/124 150/201/124
f 143/51/125 142/50/125 147/206/125 148/207/125
f 156/19/126 155/18/126 158/208/126 157/209/126
f 152/210/126 154/211/126 153/16/126 10/15/126 12/142/126 193/21/126 11/20/126
f 154/211/127 152/210/127 157/209/127 158/208/127
f 152/47/128 9/46/128 156/212/128 157/213/128
f 153/16/129 154/211/129 158/208/129 155/18/129
f 175/214/130 173/215/130 160/192/130 161/191/130
f 176/216/131 174/217/131 135/194/131 159/193/131
f 172/218/132 175/214/132 161/191/132 136/190/132
f 173/215/133 176/216/133 159/193/133 160/192/133
f 171/219/133 169/220/133 166/221/133 164/222/133
f 170/223/132 168/224/132 165/225/132 162/226/132
f 169/220/131 167/227/131 163/228/131 166/221/131
f 168/224/130 171/219/130 164/222/130 165/225/130
f 167/229/115 170/230/115 162/231/115 163/232/115
f 3/42/115 130/41/115 170/230/115 167/229/115
f 132/6/130 131/5/130 171/219/130 168/224/130
f 128/4/131 3/198/131 167/227/131 169/220/131
f 130/7/132 132/6/132 168/224/132 170/223/132
f 131/5/133 128/4/133 169/220/133 171/219/133
f 164/222/133 166/221/133 176/216/133 173/215/133
f 162/226/132 165/225/132 175/214/132 172/218/132
f 187/233/134 185/234/134 180/235/134 179/236/134
f 165/225/130 164/222/130 173/215/130 175/214/130
f 163/232/115 162/231/115 172/185/115 174/184/115
f 180/235/131 178/237/131 177/238/131 179/236/131
f 185/234/135 186/239/135 178/237/135 180/235/135
f 188/240/136 187/233/136 179/236/136 177/238/136
f 186/241/137 188/242/137 177/243/137 178/244/137
f 163/232/137 174/184/137 184/245/137 183/246/137
f 174/217/136 176/216/136 182/247/136 184/248/136
f 166/221/135 163/228/135 183/249/135 181/250/135
f 176/216/134 166/221/134 181/250/134 182/247/134
f 183/246/137 184/245/137 188/242/137 186/241/137
f 184/248/136 182/247/136 187/233/136 188/240/136
f 181/250/135 183/249/135 186/239/135 185/234/135
f 182/247/138 181/250/138 191/251/138 190/252/138
f 190/252/134 191/251/134 192/253/134 189/254/134
f 187/233/139 182/247/139 190/252/139 189/254/139
f 181/250/140 185/234/140 192/253/140 191/251/140
f 185/234/141 187/233/141 189/254/141 192/253/141
f 197/255/6 200/256/6 201/257/6 199/258/6 198/259/6
f 12/142/142 194/24/142 197/255/142 198/259/142
f 195/23/143 196/22/143 201/257/143 200/256/143
f 196/22/144 193/21/144 199/258/144 201/257/144
f 194/24/145 195/23/145 200/256/145 197/255/145
f 193/21/146 12/142/146 198/259/146 199/258/146
